<svg width="33" height="33" viewBox="0 0 33 33" fill="none" xmlns="http://www.w3.org/2000/svg">
<path d="M32.0717 16.6926C32.0717 25.549 24.8922 32.7285 16.0359 32.7285C7.1795 32.7285 0 25.549 0 16.6926C0 7.83624 7.1795 0.656738 16.0359 0.656738C24.8922 0.656738 32.0717 7.83624 32.0717 16.6926Z" fill="#B349FF"/>
<path fill-rule="evenodd" clip-rule="evenodd" d="M24.4685 21.5774C24.4685 21.6943 24.4461 21.8049 24.4138 21.9103L19.2845 16.3934L24.4685 12.3614V21.5774ZM9.23676 22.6983L14.4346 17.1595L16.4045 18.6484L18.2892 17.1502L23.5723 22.6983C23.4899 22.7173 9.31913 22.7173 9.23676 22.6983ZM8.3405 21.5774V12.3614L13.5245 16.3934L8.39522 21.9103C8.36297 21.8049 8.3405 21.6943 8.3405 21.5774ZM23.8925 11.2094L16.4045 16.9694L8.9165 11.2094H23.8925ZM23.3165 10.0574H9.4925C8.22012 10.0574 7.1885 11.089 7.1885 12.3614V21.5774C7.1885 22.8498 8.22012 23.8814 9.4925 23.8814H23.3165C24.5889 23.8814 25.6205 22.8498 25.6205 21.5774V12.3614C25.6205 11.089 24.5889 10.0574 23.3165 10.0574Z" fill="#E3E3E3"/>
</svg>
