<svg width="33" height="33" viewBox="0 0 33 33" fill="none" xmlns="http://www.w3.org/2000/svg">
<path d="M32.0717 16.6926C32.0717 25.549 24.8922 32.7285 16.0359 32.7285C7.1795 32.7285 0 25.549 0 16.6926C0 7.83624 7.1795 0.656738 16.0359 0.656738C24.8922 0.656738 32.0717 7.83624 32.0717 16.6926Z" fill="#B349FF"/>
<path fill-rule="evenodd" clip-rule="evenodd" d="M11.6251 23.2637V12.9648H8.20234V23.2637H11.6251V23.2637ZM9.91409 11.5592C11.1073 11.5592 11.8506 10.7677 11.8506 9.77941C11.828 8.76916 11.1073 8 9.93647 8C8.76544 8.00003 8 8.76919 8 9.77944C8 10.7677 8.74287 11.5592 9.89156 11.5592L9.91409 11.5592ZM13.5195 23.2637C13.5195 23.2637 13.5644 13.9311 13.5195 12.9648H16.9428V14.4584H16.9201C17.3702 13.7556 18.1812 12.723 20.0276 12.723C22.2802 12.723 23.9687 14.195 23.9687 17.3584V23.2638H20.546V17.7541C20.546 16.3697 20.0507 15.425 18.8117 15.425C17.8662 15.425 17.3028 16.0619 17.0554 16.6775C16.9648 16.8967 16.9428 17.2044 16.9428 17.5122V23.2637H13.5195Z" fill="#DDDDDD"/>
</svg>
