<svg width="354" height="199" viewBox="0 0 354 199" fill="none" xmlns="http://www.w3.org/2000/svg">
<path d="M208.799 187.266C189.64 176.94 162.562 176.63 143.165 186.506C129.767 193.328 114.601 197.175 98.536 197.175C44.1163 197.175 0 153.035 0 98.5873C0 44.1382 44.1163 0 98.536 0C115.419 0 131.31 4.24831 145.201 11.7347C164.36 22.0609 191.438 22.3703 210.833 12.4942C224.233 5.67191 239.399 1.82572 255.464 1.82572C309.884 1.82572 354 45.9649 354 100.413C354 154.862 309.884 199 255.464 199C238.581 199 222.69 194.752 208.799 187.266Z" fill="#F5F5F5"/>
</svg>
