<svg width="79" height="89" viewBox="0 0 79 89" fill="none" xmlns="http://www.w3.org/2000/svg">
<path d="M-16.4783 2.39699C-16.1421 0.119926 -12.8576 0.119912 -12.5213 2.39698L-7.64732 35.3992C-7.35896 37.3518 -4.71665 37.7507 -3.86469 35.9703L10.5412 5.86579C11.5349 3.78941 14.6731 4.75931 14.3219 7.03422L9.23363 39.9958C8.93246 41.9468 11.34 43.1081 12.6794 41.6579L35.3324 17.1328C36.8945 15.4416 39.6072 17.2947 38.6 19.3648L24.0087 49.3537C23.1447 51.1294 25.1035 52.9499 26.8113 51.9584L55.6907 35.1926C57.6821 34.0365 59.7285 36.6075 58.1552 38.2888L35.3637 62.6438C34.014 64.0861 35.35 66.4039 37.2746 65.9589L69.8102 58.4364C72.0539 57.9176 73.2526 60.9779 71.2535 62.1211L42.2879 78.6859C40.5728 79.6667 41.1673 82.276 43.1382 82.4169L76.4387 84.7984C78.7359 84.9627 78.9811 88.2405 76.7339 88.7448L44.1632 96.0528C42.2352 96.4854 42.0356 99.1542 43.8777 99.8689L74.9932 111.94C77.1403 112.773 76.4102 115.978 74.1142 115.798L40.8241 113.2C38.8544 113.046 37.8783 115.538 39.4281 116.763L65.5985 137.453C67.405 138.881 65.7641 141.728 63.6227 140.881L32.5685 128.601C30.7318 127.875 29.0658 129.967 30.1852 131.595L49.0881 159.072C50.3931 160.969 47.9866 163.206 46.1898 161.767L20.1316 140.888C18.5908 139.654 16.383 141.162 16.9722 143.046L26.924 174.877C27.6109 177.074 24.6523 178.501 23.36 176.596L4.62088 148.972C3.51278 147.339 0.959335 148.128 0.965782 150.102L1.07478 183.457C1.08231 185.759 -2.1654 186.249 -2.83793 184.048L-12.5871 152.137C-13.1637 150.249 -15.8359 150.249 -16.4125 152.137L-26.1617 184.048C-26.8342 186.249 -30.0819 185.759 -30.0744 183.457L-29.9654 150.102C-29.9589 148.128 -32.5124 147.339 -33.6205 148.972L-52.3598 176.596C-53.6521 178.501 -56.6107 177.074 -55.9238 174.877L-45.9718 143.046C-45.3826 141.162 -47.5904 139.654 -49.1312 140.888L-75.1895 161.767C-76.9862 163.206 -79.3927 160.969 -78.0877 159.072L-59.1846 131.595C-58.0652 129.967 -59.7311 127.875 -61.5678 128.601L-92.6226 140.882C-94.764 141.728 -96.4049 138.881 -94.5984 137.453L-68.4277 116.763C-66.8779 115.538 -67.854 113.046 -69.8237 113.2L-103.114 115.798C-105.41 115.978 -106.14 112.773 -103.993 111.94L-72.8776 99.8689C-71.0354 99.1542 -71.2351 96.4854 -73.1631 96.0528L-105.734 88.7448C-107.981 88.2406 -107.736 84.9627 -105.439 84.7984L-72.1375 82.4169C-70.1667 82.276 -69.5721 79.6667 -71.2873 78.6859L-100.253 62.1211C-102.252 60.9779 -101.053 57.9176 -98.8097 58.4364L-66.274 65.9589C-64.3494 66.4039 -63.0134 64.0861 -64.3632 62.6438L-87.1548 38.2889C-88.7281 36.6076 -86.6817 34.0366 -84.6903 35.1926L-55.8109 51.9584C-54.1031 52.9499 -52.1444 51.1294 -53.0083 49.3537L-67.5997 19.3648C-68.607 17.2947 -65.8942 15.4416 -64.3321 17.1328L-41.679 41.658C-40.3396 43.1081 -37.9321 41.9468 -38.2332 39.9958L-43.3215 7.03421C-43.6727 4.75929 -40.5345 3.78942 -39.5408 5.86579L-25.1349 35.9704C-24.283 37.7507 -21.6407 37.3518 -21.3523 35.3992L-16.4783 2.39699Z" fill="#F5F5F5"/>
</svg>
