<svg width="67" height="67" viewBox="0 0 67 67" fill="none" xmlns="http://www.w3.org/2000/svg">
<path d="M32.606 0.794156C32.7318 -0.264719 34.2683 -0.264719 34.394 0.794156L35.448 9.67716C36.809 21.1475 45.8525 30.191 57.3228 31.552L66.2057 32.606C67.2647 32.7318 67.2647 34.2683 66.2057 34.394L57.3228 35.448C45.8525 36.809 36.809 45.8525 35.448 57.3228L34.394 66.2057C34.2683 67.2647 32.7318 67.2647 32.606 66.2057L31.552 57.3228C30.191 45.8525 21.1475 36.809 9.67716 35.448L0.794156 34.394C-0.264719 34.2683 -0.264719 32.7318 0.794156 32.606L9.67716 31.552C21.1475 30.191 30.191 21.1475 31.552 9.67716L32.606 0.794156Z" fill="white"/>
</svg>
