<svg width="112" height="118" viewBox="0 0 112 118" fill="none" xmlns="http://www.w3.org/2000/svg">
<path d="M59.3661 62.2926C59.4755 63.5199 57.1853 64.192 55.9982 62.2926C54.7151 60.6148 55.6585 56.7186 59.3661 55.5937C62.8581 54.262 68.3836 56.8183 69.4696 62.2926C70.8533 67.5564 66.675 74.6575 59.3661 75.6913C52.2842 77.114 43.5085 71.3524 42.5268 62.2926C41.0388 53.4539 48.4673 43.1268 59.3661 42.1951C70.0535 40.6703 82.0516 49.6556 82.941 62.2926C84.5236 74.7085 73.8704 88.2602 59.3661 89.0895C45.0759 90.7163 29.8446 78.5049 29.0556 62.2926C27.3748 46.2912 41.259 29.5326 59.3661 28.7968C77.2447 27.0784 95.7284 42.4948 96.4124 62.2926C98.1958 81.8693 81.0681 101.854 59.3661 102.488C37.8824 104.308 16.1743 85.6676 15.5842 62.2926C13.7088 39.1391 34.0594 15.9322 59.3661 15.3984C84.4466 13.4758 109.396 35.3428 109.884 62.2926C111.864 89.032 88.2677 115.446 59.3661 115.886C30.6913 117.902 2.49762 92.828 2.11275 62.2926C0.0385898 31.9783 26.8638 2.33814 59.3661 2" stroke="#4F4F4F" stroke-width="3" stroke-linecap="round"/>
</svg>
