<svg width="1240" height="380" viewBox="0 0 1240 380" fill="none" xmlns="http://www.w3.org/2000/svg">
<path opacity="0.15" fill-rule="evenodd" clip-rule="evenodd" d="M1024.28 0H959.716L1240 85.8939V66.107L1024.28 0ZM1240 18.3383L1180.16 0H1240V18.3383ZM1240 133.662L803.834 0H739.271L1240 153.449V133.662ZM1240 201.218L583.39 0H518.827L1240 221.005V201.218ZM1240 268.773L362.945 0H298.38L1240 288.56V268.773ZM1240 336.329L142.503 0H77.9359L1240 356.116V336.329ZM1162.06 380L0 23.8848V43.6716L1097.49 380H1162.06ZM941.612 380L0 91.4403V111.227L877.049 380H941.612ZM721.167 380L0 158.995V178.782L656.605 380H721.167ZM500.723 380L0 226.551V246.338L436.16 380H500.723ZM280.281 380L0 294.106V313.894L215.714 380H280.281ZM59.8363 380L0 361.662V380H59.8363Z" fill="#C26DFF"/>
</svg>
